<?xml version="1.0" encoding="utf-8"?>
<!-- Generator: Adobe Illustrator 16.0.0, SVG Export Plug-In . SVG Version: 6.00 Build 0)  -->
<!DOCTYPE svg PUBLIC "-//W3C//DTD SVG 1.1//EN" "http://www.w3.org/Graphics/SVG/1.1/DTD/svg11.dtd">
<svg version="1.1" id="Capa_1" xmlns="http://www.w3.org/2000/svg" xmlns:xlink="http://www.w3.org/1999/xlink" x="0px" y="0px"
	 width="960px" height="560px" viewBox="0 0 960 560" enable-background="new 0 0 960 560" xml:space="preserve">
<path fill="none" stroke="#FFFFFF" stroke-width="1.0981" stroke-miterlimit="10" d="M140.432,152.821
	c4.324-0.424,8.92-0.86,12.805,1.083"/>
<polygon fill="#2FB4AA" points="246.365,122.291 276.533,122.291 276.533,319.487 279.404,316.555 279.404,119.36 246.365,119.36 
	"/>
<path fill="#4171B7" d="M339.452,284.369c-1.68-1.841-2.462-3.942-2.462-6.612V119.36l-33.039-0.117l-2.874,2.932l33.041,0.117
	v158.394c0,2.674,0.781,4.775,2.461,6.615c0.971,1.065,2.683,2.477,6.372,2.477h45.459v29.71l2.872-2.932v-29.711h-45.459
	C342.133,286.845,340.423,285.435,339.452,284.369"/>
<path fill="#B62F76" d="M214.041,131.888c-3.474-4.083-8.585-7.583-15.192-10.403c-6.593-2.808-15.207-4.173-26.331-4.173
	c-11.128,0-19.741,1.365-26.335,4.175c-6.584,2.811-11.719,6.289-15.264,10.341c-0.091,0.106-0.179,0.211-0.269,0.316
	c3.301-2.949,7.541-5.542,12.661-7.726c6.593-2.81,15.208-4.176,26.335-4.176c11.124,0,19.735,1.367,26.331,4.175
	c6.607,2.82,11.718,6.319,15.191,10.402c3.538,4.168,5.773,8.541,6.646,13c0.76,3.922,1.131,6.92,1.131,9.174v42.768
	c0,7.367-2.401,14.375-7.136,20.825c-0.425,0.578-0.885,1.142-1.362,1.697c1.613-1.443,3.027-2.986,4.234-4.627
	c4.735-6.452,7.135-13.458,7.135-20.827v-42.767c0-2.252-0.37-5.25-1.131-9.173C219.814,140.428,217.581,136.056,214.041,131.888"/>
<path fill="#B62F76" d="M156.744,154.748c0.091-0.388,0.266-0.8,0.51-1.224c-0.715,0.45-1.307,0.93-1.763,1.438
	c-0.877,0.974-1.422,1.889-1.618,2.717c-0.324,1.353-0.487,2.582-0.487,3.667v51.999c1.74-0.624,3.571-1.258,5.471-1.894
	c2.5-0.833,5.029-1.717,7.525-2.633c2.685-0.981,4.998-1.795,7.074-2.489c1.027-0.341,2.045-0.68,3.064-1.021
	c0.93-0.309,1.765-0.613,2.503-0.91l0.263-0.097c2.716-0.941,4.559-2.132,5.058-3.267c0.105-0.244,0.206-0.484,0.3-0.718
	c-0.712,0.373-1.545,0.728-2.486,1.054l-0.263,0.098c-0.736,0.295-1.574,0.6-2.503,0.909c-1.018,0.343-2.036,0.681-3.064,1.021
	c-2.076,0.694-4.388,1.508-7.074,2.489c-2.494,0.917-5.022,1.802-7.525,2.635c-1.899,0.635-3.731,1.269-5.468,1.892v-51.999
	C156.259,157.332,156.421,156.102,156.744,154.748"/>
<path fill="#B62F76" d="M154.066,249.048c-0.448,0.569-0.68,1.48-0.68,2.699v67.74l2.873-2.933v-67.738
	c0-0.981,0.151-1.76,0.444-2.326C155.775,247.151,154.889,248.005,154.066,249.048"/>
<path fill="#B62F76" d="M806.068,272.361v8.067c0,1.086,0.161,2.314,0.482,3.657c0.187,0.791,0.697,1.628,1.521,2.495
	c0.946,1.001,2.444,1.907,4.458,2.699c2.126,0.84,5.162,1.264,9.03,1.264c5.263,0,8.189-0.697,9.718-1.283
	c2.177-0.832,3.819-1.763,4.888-2.774c0.64-0.606,1.107-1.214,1.395-1.808c-0.928,0.586-2.065,1.138-3.409,1.651
	c-1.528,0.586-4.457,1.283-9.72,1.283c-3.867,0-6.902-0.425-9.03-1.266c-2.013-0.79-3.51-1.696-4.457-2.698
	c-0.824-0.868-1.337-1.705-1.522-2.494c-0.319-1.342-0.482-2.573-0.482-3.655v-8.071H775.9l-2.872,2.933H806.068z"/>
<path fill="#B62F76" d="M861.587,219.458c-2.767-2.354-5.992-4.178-9.596-5.429c-2.588-1.252-5.654-2.336-9.131-3.23
	c-3.374-1.338-7.093-2.705-11.067-4.062c-4.027-1.368-7.577-2.568-10.668-3.596c-1.018-0.339-2.035-0.677-3.071-1.025
	c-0.955-0.317-1.494-0.554-1.775-0.697l-0.352-0.177l-0.366-0.128c-2.811-0.972-4.672-2.18-5.246-3.404
	c-0.899-1.917-1.375-3.638-1.375-4.978V158.16c0-1.085,0.163-2.314,0.485-3.668c0.092-0.388,0.265-0.798,0.509-1.224
	c-0.714,0.45-1.306,0.929-1.764,1.438c-0.876,0.974-1.421,1.891-1.616,2.718c-0.324,1.354-0.485,2.583-0.485,3.668v34.571
	c0,1.341,0.476,3.062,1.375,4.98c0.571,1.224,2.436,2.431,5.244,3.402l0.37,0.128l0.348,0.176c0.283,0.145,0.82,0.381,1.777,0.699
	c1.036,0.348,2.053,0.687,3.071,1.023c3.089,1.03,6.641,2.23,10.666,3.599c3.976,1.356,7.695,2.721,11.069,4.061
	c3.476,0.893,6.543,1.979,9.131,3.23c3.603,1.25,6.829,3.075,9.596,5.429c2.702,2.305,5.083,4.986,7.076,7.979
	c3.863,5.697,5.835,12.127,5.835,19.076v35.084c0,2.44-0.372,5.49-1.134,9.32c-0.874,4.359-3.093,8.664-6.598,12.801
	c1.038-0.926,1.983-1.885,2.83-2.882c3.529-4.151,5.762-8.475,6.639-12.85c0.765-3.832,1.135-6.881,1.135-9.321v-35.084
	c0-6.947-1.972-13.378-5.834-19.077C866.67,224.445,864.289,221.762,861.587,219.458"/>
<path fill="#B62F76" d="M873.368,144.632c-0.873-4.461-3.108-8.833-6.646-13c-3.474-4.082-8.584-7.582-15.191-10.402
	c-6.594-2.809-15.208-4.174-26.331-4.174c-11.128,0-19.741,1.365-26.334,4.174c-6.608,2.82-11.721,6.32-15.191,10.404
	c-0.014,0.018-0.028,0.034-0.042,0.052c3.223-2.869,7.361-5.392,12.359-7.524c6.596-2.811,15.209-4.175,26.335-4.175
	c11.124,0,19.737,1.364,26.332,4.173c6.608,2.82,11.717,6.32,15.192,10.403c3.539,4.168,5.771,8.539,6.645,13
	c0.763,3.92,1.131,6.919,1.131,9.176v12.421l2.872-2.932v-12.421C874.499,151.551,874.13,148.552,873.368,144.632"/>
<path fill="#2FB4AA" d="M682.208,122.658c-4.219,2.109-7.806,4.875-10.668,8.213c2.28-2.052,4.885-3.827,7.795-5.284
	c4.377-2.187,9.554-3.296,15.384-3.296h55.958v29.454l2.872-2.931v-29.455h-55.961C691.76,119.359,686.583,120.468,682.208,122.658"
	/>
<path fill="#2FB4AA" d="M697.381,152.792c-0.812,0.464-1.381,1.012-1.806,1.492c-1.72,1.94-2.521,4.184-2.521,7.063v43.661h46.354
	v31.76l2.872-2.932v-31.758h-46.353v-43.663C695.928,156.221,696.397,154.396,697.381,152.792"/>
<path fill="#2FB4AA" d="M698.444,284.558c-1.718-1.935-2.517-4.097-2.517-6.804v-40.985h-2.873v43.918
	c0,2.707,0.801,4.868,2.518,6.802c0.969,1.095,2.671,2.544,6.316,2.544h48.788v29.453l2.872-2.93V287.1h-48.787
	C701.116,287.1,699.414,285.652,698.444,284.558"/>
<path fill="#B62F76" d="M446.677,249.047c-0.449,0.57-0.681,1.48-0.681,2.7v67.74l2.873-2.932v-67.739
	c0-0.981,0.153-1.76,0.446-2.326C448.386,247.151,447.499,248.005,446.677,249.047"/>
<path fill="#B62F76" d="M449.354,154.748c0.092-0.388,0.265-0.798,0.51-1.224c-0.717,0.45-1.308,0.93-1.766,1.438
	c-0.875,0.974-1.422,1.889-1.617,2.717c-0.322,1.353-0.485,2.582-0.485,3.667v52.059c3.728-1.333,7.397-2.626,10.907-3.85
	c3.679-1.284,7.017-2.44,10.015-3.467c3.203-1.099,4.146-1.452,4.412-1.56l0.209-0.104l0.355-0.123
	c2.718-0.941,4.562-2.133,5.058-3.267c0.106-0.244,0.207-0.484,0.3-0.718c-0.712,0.373-1.545,0.728-2.486,1.054l-0.355,0.123
	l-0.208,0.106c-0.268,0.105-1.208,0.458-4.412,1.558c-3,1.028-6.338,2.184-10.017,3.467c-3.51,1.224-7.177,2.519-10.906,3.85
	v-52.059C448.869,157.33,449.03,156.1,449.354,154.748"/>
<path fill="#B62F76" d="M506.651,131.888c-3.473-4.083-8.584-7.581-15.19-10.403c-6.596-2.808-15.209-4.173-26.333-4.173
	c-11.128,0-19.74,1.365-26.333,4.175c-6.609,2.819-11.719,6.32-15.191,10.404c-0.014,0.017-0.028,0.034-0.042,0.051
	c3.221-2.871,7.363-5.392,12.36-7.524c6.592-2.81,15.207-4.176,26.334-4.176c11.124,0,19.735,1.367,26.331,4.175
	c6.607,2.82,11.718,6.319,15.191,10.402c3.539,4.167,5.772,8.539,6.646,13c0.762,3.92,1.131,6.917,1.131,9.174v162.492l2.873-2.93
	V154.062c0-2.255-0.369-5.253-1.131-9.175C512.424,140.426,510.19,136.054,506.651,131.888"/>
<path fill="#4171B7" d="M559.066,124.417c6.595-2.81,15.208-4.175,26.334-4.175c11.124,0,19.737,1.365,26.332,4.173
	c6.607,2.822,11.717,6.32,15.19,10.403c3.539,4.168,5.773,8.54,6.646,13.001c0.763,3.919,1.132,6.918,1.132,9.173v42.768
	c0,6.5-1.787,12.757-5.31,18.598c-0.788,1.307-1.696,2.553-2.711,3.739c2.248-2.013,4.115-4.238,5.582-6.67
	c3.523-5.841,5.309-12.098,5.309-18.598v-42.768c0-2.255-0.368-5.253-1.13-9.174c-0.873-4.461-3.108-8.833-6.646-13.001
	c-3.476-4.081-8.584-7.581-15.191-10.401c-6.595-2.81-15.208-4.175-26.331-4.175c-11.128,0-19.741,1.365-26.335,4.177
	c-6.607,2.818-11.72,6.32-15.19,10.402c-0.015,0.018-0.028,0.034-0.042,0.052C549.93,129.072,554.068,126.55,559.066,124.417"/>
<path fill="#4171B7" d="M572.754,154.748c0.093-0.388,0.266-0.798,0.508-1.224c-0.715,0.45-1.304,0.93-1.761,1.437
	c-0.877,0.976-1.423,1.891-1.619,2.718c-0.322,1.353-0.484,2.582-0.484,3.667v51.999c1.736-0.623,3.566-1.256,5.468-1.894
	c2.499-0.831,5.03-1.717,7.524-2.631c2.694-0.986,5.007-1.799,7.077-2.491c1.026-0.341,2.044-0.68,3.062-1.021
	c0.932-0.31,1.768-0.613,2.503-0.909l0.196-0.076c2.679-0.965,4.474-2.18,5.058-3.426c0.098-0.207,0.18-0.399,0.266-0.594
	c-0.705,0.387-1.521,0.754-2.452,1.09l-0.195,0.074c-0.736,0.295-1.571,0.6-2.503,0.909c-1.02,0.343-2.036,0.681-3.063,1.021
	c-2.07,0.693-4.383,1.505-7.075,2.491c-2.496,0.917-5.024,1.801-7.524,2.633c-1.9,0.635-3.731,1.269-5.47,1.892v-51.999
	C572.269,157.33,572.433,156.1,572.754,154.748"/>
<path fill="#4171B7" d="M572.54,246.562c-0.764,0.427-1.524,1.132-2.215,2.071c-0.519,0.704-0.822,1.629-0.928,2.826v68.027
	l2.871-2.932v-68.026c0.073-0.823,0.246-1.508,0.511-2.089C572.7,246.482,572.619,246.521,572.54,246.562"/>
<path fill="#4171B7" d="M616.374,230.173l31.18,89.314l2.873-2.932L619.6,228.252C618.577,228.926,617.504,229.567,616.374,230.173"
	/>
<path fill="#A31B5C" d="M211.169,134.819c-3.475-4.082-8.585-7.582-15.19-10.404c-6.596-2.807-15.209-4.174-26.333-4.174
	c-11.127,0-19.741,1.367-26.334,4.175c-6.585,2.811-11.719,6.29-15.265,10.342c-3.655,4.179-5.952,8.575-6.826,13.061
	c-0.761,3.896-1.131,6.896-1.131,9.173v162.492h33.294v-67.738c0-1.22,0.231-2.13,0.68-2.699c0.887-1.124,1.845-2.036,2.851-2.714
	c1.335-0.842,2.728-1.444,4.141-1.799l0.32-0.081l0.309-0.115c2.629-0.986,5.49-1.995,8.502-2.999
	c2.43-0.811,5.167-1.738,8.374-2.835c2.969-1.02,5.732-1.951,8.28-2.804l0.385-0.128l0.183-0.091l0.786-0.234
	c10.917-3.254,18.861-8.188,23.615-14.662c4.735-6.45,7.135-13.457,7.135-20.825v-42.768c0-2.253-0.368-5.251-1.131-9.174
	C216.942,143.36,214.708,138.987,211.169,134.819 M168.878,150.976c5.253,0,8.188,0.7,9.717,1.282
	c2.182,0.837,3.826,1.771,4.885,2.77c0.855,0.813,1.402,1.618,1.625,2.396c0.363,1.268,0.545,2.416,0.545,3.41v35.085
	c0,1.406-0.44,3.128-1.308,5.115c-0.499,1.137-2.342,2.328-5.058,3.267l-0.263,0.099c-0.739,0.297-1.574,0.6-2.503,0.909
	c-1.018,0.342-2.037,0.68-3.064,1.021c-2.078,0.692-4.39,1.506-7.076,2.488c-2.495,0.916-5.023,1.801-7.523,2.633
	c-1.899,0.635-3.731,1.27-5.471,1.894v-51.999c0-1.086,0.163-2.315,0.487-3.669c0.195-0.826,0.741-1.742,1.618-2.716
	c0.927-1.031,2.396-1.948,4.357-2.722C161.981,151.401,165.019,150.976,168.878,150.976"/>
<rect x="243.493" y="122.291" fill="#06A099" width="33.04" height="197.196"/>
<path fill="#214E9B" d="M336.58,287.301c-1.679-1.841-2.461-3.941-2.461-6.613V122.291h-33.039v162.492
	c0,3.887,0.713,7.888,2.115,11.887c1.419,4.07,3.581,7.83,6.423,11.178c2.884,3.399,6.511,6.205,10.782,8.34
	c4.375,2.189,9.551,3.3,15.382,3.3h52.63v-29.712h-45.459C339.261,289.775,337.551,288.366,336.58,287.301"/>
<path fill="#A31B5C" d="M503.779,134.818c-3.474-4.082-8.584-7.581-15.191-10.402c-6.596-2.809-15.208-4.174-26.333-4.174
	c-11.128,0-19.74,1.365-26.333,4.176c-6.608,2.82-11.72,6.32-15.191,10.403c-3.541,4.165-5.776,8.541-6.643,13
	c-0.762,3.897-1.131,6.897-1.131,9.174v162.493h33.039v-67.74c0-1.219,0.23-2.13,0.681-2.702c0.884-1.121,1.845-2.033,2.847-2.711
	c1.336-0.841,2.73-1.447,4.143-1.799l15.789-5.246l0.071-0.024c3.103-1.078,6.031-2.108,8.733-3.071v83.294h33.295V156.994
	c0-2.256-0.369-5.255-1.131-9.175C509.552,143.358,507.318,138.986,503.779,134.818 M466.918,206.088
	c-2.998,1.028-6.336,2.183-10.015,3.467c-3.511,1.224-7.18,2.519-10.907,3.85v-52.058c0-1.087,0.163-2.316,0.485-3.668
	c0.196-0.827,0.743-1.744,1.617-2.718c0.929-1.029,2.398-1.946,4.361-2.721c2.133-0.838,5.17-1.264,9.03-1.264
	c5.251,0,8.187,0.7,9.715,1.282c2.184,0.837,3.826,1.771,4.885,2.771c0.854,0.812,1.401,1.617,1.625,2.396
	c0.362,1.27,0.546,2.416,0.546,3.41v35.083c0,1.407-0.44,3.128-1.308,5.116c-0.496,1.135-2.34,2.326-5.059,3.268l-0.354,0.123
	l-0.209,0.106C471.062,204.636,470.123,204.989,466.918,206.088"/>
<path fill="#214E9B" d="M629.392,218.358c3.522-5.841,5.31-12.098,5.31-18.598v-42.767c0-2.255-0.369-5.253-1.132-9.175
	c-0.873-4.461-3.107-8.833-6.645-13c-3.474-4.083-8.585-7.583-15.192-10.402c-6.595-2.809-15.208-4.176-26.33-4.176
	c-11.128,0-19.741,1.367-26.336,4.177c-6.608,2.818-11.719,6.32-15.189,10.403c-3.541,4.164-5.776,8.539-6.644,12.999
	c-0.762,3.894-1.132,6.894-1.132,9.173v162.494h33.296V251.46c0.105-1.196,0.409-2.122,0.928-2.827
	c0.69-0.938,1.451-1.644,2.216-2.07c1.562-0.852,3.229-1.575,4.952-2.152l3.726-1.241c1.223-0.354,2.574-0.812,4.012-1.361
	l27.062,77.68h35.261l-31.18-89.313C622.162,227.061,626.53,223.102,629.392,218.358 M569.397,161.347
	c0-1.085,0.162-2.315,0.485-3.667c0.195-0.829,0.741-1.744,1.618-2.719c0.927-1.029,2.396-1.945,4.358-2.72
	c2.133-0.84,5.171-1.266,9.029-1.266c5.253,0,8.188,0.701,9.718,1.284c2.182,0.836,3.826,1.77,4.884,2.771
	c0.856,0.811,1.402,1.616,1.624,2.395c0.364,1.27,0.549,2.417,0.549,3.41v35.341c0,0.818-0.239,2.3-1.377,4.725
	c-0.583,1.245-2.379,2.46-5.058,3.425l-0.196,0.075c-0.736,0.296-1.571,0.599-2.503,0.909c-1.019,0.341-2.036,0.68-3.062,1.021
	c-2.07,0.691-4.383,1.505-7.077,2.491c-2.494,0.916-5.023,1.8-7.522,2.631c-1.902,0.637-3.733,1.27-5.47,1.894V161.347z"/>
<path fill="#06A099" d="M679.335,125.588c-4.271,2.136-7.898,4.942-10.776,8.337c-2.842,3.346-5.005,7.106-6.426,11.175
	c-1.405,4.011-2.116,8.012-2.116,11.894v127.789c0,3.887,0.712,7.888,2.113,11.888c1.421,4.069,3.584,7.831,6.425,11.177
	c2.882,3.398,6.509,6.205,10.781,8.34c4.376,2.189,9.553,3.3,15.383,3.3h55.958v-29.454h-48.788c-3.644,0-5.348-1.45-6.316-2.546
	c-1.717-1.935-2.518-4.094-2.518-6.8v-43.921h46.354v-31.757h-46.354v-43.663c0-2.877,0.801-5.121,2.521-7.061
	c0.965-1.091,2.67-2.541,6.312-2.541h48.788v-29.454h-55.958C688.889,122.291,683.712,123.401,679.335,125.588"/>
<path fill="#A31B5C" d="M871.628,169.159v-12.422c0-2.255-0.369-5.254-1.132-9.175c-0.873-4.461-3.107-8.832-6.645-13
	c-3.476-4.082-8.584-7.582-15.192-10.402c-6.595-2.809-15.208-4.174-26.332-4.174c-11.126,0-19.739,1.367-26.334,4.175
	c-6.608,2.819-11.719,6.32-15.189,10.404c-3.541,4.164-5.776,8.539-6.644,12.999c-0.761,3.895-1.132,6.896-1.132,9.174v42.767
	c0,7.356,2.347,14.347,6.974,20.776c4.667,6.501,12.58,11.448,23.521,14.712l0.789,0.234l0.188,0.095l19.369,6.454
	c1.27,0.537,2.722,1.078,4.318,1.611l3.806,1.269c2.718,0.945,4.494,2.125,5.002,3.32c1.105,2.61,1.337,4.188,1.337,5.052v27.914
	c0,0.568-0.095,1.574-0.547,3.154c-0.223,0.778-0.77,1.584-1.62,2.391c-1.068,1.012-2.711,1.942-4.888,2.774
	c-1.528,0.586-4.455,1.283-9.718,1.283c-3.868,0-6.902-0.424-9.03-1.264c-2.013-0.792-3.512-1.698-4.458-2.699
	c-0.824-0.867-1.335-1.704-1.521-2.495c-0.321-1.343-0.482-2.571-0.482-3.657v-8.067h-33.04v12.167c0,2.282,0.371,5.282,1.131,9.164
	c0.868,4.473,3.104,8.85,6.642,13.004c3.472,4.091,8.586,7.593,15.195,10.408c6.592,2.81,15.205,4.176,26.331,4.176
	c11.124,0,19.737-1.366,26.333-4.176c6.605-2.815,11.718-6.316,15.194-10.406c3.527-4.151,5.762-8.473,6.639-12.85
	c0.763-3.83,1.135-6.88,1.135-9.32v-35.084c0-6.949-1.972-13.379-5.836-19.078c-1.993-2.989-4.374-5.673-7.076-7.978
	c-2.766-2.354-5.993-4.178-9.596-5.429c-2.588-1.251-5.655-2.337-9.131-3.23c-3.374-1.339-7.094-2.705-11.069-4.061
	c-4.025-1.368-7.577-2.569-10.666-3.599c-1.018-0.337-2.035-0.675-3.071-1.024c-0.957-0.317-1.494-0.554-1.777-0.697l-0.348-0.177
	l-0.37-0.128c-2.809-0.971-4.671-2.18-5.244-3.403c-0.899-1.916-1.375-3.638-1.375-4.978v-34.572c0-1.086,0.161-2.315,0.485-3.669
	c0.195-0.826,0.74-1.743,1.617-2.717c0.928-1.03,2.397-1.946,4.359-2.72c2.132-0.84,5.17-1.266,9.03-1.266
	c5.253,0,8.188,0.7,9.717,1.282c2.184,0.837,3.826,1.771,4.883,2.77c0.856,0.813,1.403,1.618,1.626,2.395
	c0.362,1.27,0.547,2.417,0.547,3.412v8.58H871.628z"/>
<path fill="#585857" d="M117.704,364.116v-20.645h4.669c1.743,0,3.006,0.47,3.79,1.413c0.786,0.942,1.18,2.461,1.18,4.553
	c0,1.952-0.383,3.487-1.144,4.605c-0.761,1.118-1.804,1.678-3.126,1.678h-2.185v8.396H117.704z M120.888,352.765h1.256
	c0.741,0,1.253-0.227,1.535-0.678c0.28-0.452,0.421-1.315,0.421-2.591c0-1.17-0.148-1.97-0.444-2.398
	c-0.294-0.43-0.836-0.642-1.626-0.642h-1.142V352.765z"/>
<path fill="#585857" d="M132.25,343.471h3.255v15.991c0,0.6,0.155,1.078,0.463,1.435c0.31,0.357,0.717,0.536,1.221,0.536
	c0.505,0,0.899-0.176,1.187-0.529c0.284-0.353,0.427-0.833,0.427-1.441v-15.991h3.241v15.435c0,1.817-0.421,3.216-1.263,4.189
	c-0.843,0.976-2.048,1.464-3.62,1.464c-1.589,0-2.804-0.491-3.647-1.471c-0.842-0.98-1.264-2.403-1.264-4.269V343.471z"/>
<path fill="#585857" d="M148.052,364.116v-20.646h2.856l4.04,12.336c0.077,0.237,0.17,0.553,0.278,0.941
	c0.11,0.39,0.222,0.811,0.335,1.257c-0.104-0.6-0.19-1.153-0.257-1.662c-0.065-0.509-0.1-0.885-0.1-1.121v-11.751h2.984v20.646
	h-2.984l-3.882-11.409c-0.021-0.046-0.043-0.118-0.071-0.213c-0.267-0.781-0.467-1.458-0.6-2.028
	c0.113,0.723,0.202,1.326,0.263,1.808c0.063,0.479,0.094,0.83,0.094,1.049v10.794H148.052z"/>
<polygon fill="#585857" points="162.555,346.454 162.555,343.471 172.349,343.471 172.349,346.454 169.038,346.454 169.038,364.116 
	165.854,364.116 165.854,346.454 "/>
<path fill="#585857" d="M176.359,348.239c0-1.627,0.443-2.901,1.326-3.826c0.886-0.922,2.109-1.385,3.67-1.385
	c1.475,0,2.645,0.474,3.505,1.42c0.86,0.948,1.292,2.239,1.292,3.876v10.581c0,1.809-0.425,3.202-1.278,4.183
	c-0.853,0.979-2.063,1.471-3.634,1.471c-1.59,0-2.8-0.488-3.633-1.464c-0.834-0.974-1.25-2.401-1.25-4.275V348.239z
	 M182.883,359.561V348.04c0-0.714-0.139-1.25-0.414-1.606c-0.275-0.357-0.685-0.535-1.228-0.535s-0.951,0.178-1.228,0.535
	c-0.276,0.356-0.414,0.893-0.414,1.606v11.521c0,0.714,0.138,1.253,0.414,1.615c0.277,0.361,0.686,0.542,1.228,0.542
	s0.952-0.181,1.228-0.542C182.745,360.813,182.883,360.274,182.883,359.561"/>
<path fill="#585857" d="M191.005,358.876l3.041-0.456c0.057,1.046,0.257,1.82,0.6,2.32c0.343,0.5,0.847,0.749,1.514,0.749
	c0.58,0,1.052-0.184,1.414-0.55c0.361-0.366,0.541-0.849,0.541-1.448c0-1.076-0.857-2.467-2.568-4.171
	c-0.135-0.133-0.233-0.232-0.3-0.3c-1.677-1.675-2.752-2.962-3.228-3.86c-0.477-0.901-0.714-1.855-0.714-2.863
	c0-1.456,0.478-2.684,1.435-3.676c0.958-0.996,2.125-1.492,3.504-1.492c1.342,0,2.442,0.457,3.299,1.377
	c0.858,0.918,1.348,2.163,1.47,3.733l-3.111,0.442c-0.057-0.924-0.222-1.584-0.495-1.983c-0.271-0.401-0.687-0.601-1.248-0.601
	c-0.514,0-0.926,0.173-1.234,0.521c-0.311,0.347-0.464,0.81-0.464,1.393c0,1.196,1,2.764,2.999,4.697
	c0.076,0.075,0.137,0.136,0.184,0.187c1.467,1.425,2.429,2.592,2.884,3.496c0.458,0.904,0.686,1.917,0.686,3.041
	c0,1.505-0.465,2.738-1.399,3.705c-0.932,0.966-2.113,1.448-3.541,1.448c-1.579,0-2.833-0.504-3.761-1.513
	C191.583,362.065,191.081,360.665,191.005,358.876"/>
<path fill="#585857" d="M864.291,358.876l3.041-0.456c0.057,1.046,0.257,1.82,0.6,2.32s0.848,0.749,1.513,0.749
	c0.582,0,1.053-0.184,1.414-0.55s0.541-0.849,0.541-1.448c0-1.076-0.854-2.467-2.568-4.171c-0.133-0.133-0.233-0.232-0.3-0.3
	c-1.675-1.675-2.751-2.962-3.227-3.86c-0.476-0.901-0.714-1.855-0.714-2.863c0-1.456,0.478-2.684,1.435-3.676
	c0.956-0.996,2.125-1.492,3.506-1.492c1.341,0,2.441,0.457,3.296,1.377c0.857,0.918,1.349,2.163,1.473,3.733l-3.112,0.442
	c-0.057-0.924-0.222-1.584-0.493-1.983c-0.271-0.401-0.688-0.601-1.25-0.601c-0.513,0-0.925,0.173-1.234,0.521
	c-0.31,0.347-0.464,0.81-0.464,1.393c0,1.196,1,2.764,2.998,4.697c0.077,0.075,0.138,0.136,0.186,0.187
	c1.466,1.425,2.428,2.592,2.885,3.496c0.456,0.904,0.685,1.917,0.685,3.041c0,1.505-0.466,2.738-1.398,3.705
	c-0.933,0.966-2.115,1.448-3.543,1.448c-1.579,0-2.832-0.504-3.761-1.513C864.869,362.065,864.367,360.665,864.291,358.876"/>
<path fill="#585857" d="M215.229,364.116v-20.647h4.525c1.752,0,3.049,0.463,3.892,1.388c0.842,0.922,1.263,2.35,1.263,4.282v9.225
	c0,2.006-0.399,3.468-1.199,4.383c-0.8,0.913-2.071,1.37-3.812,1.37H215.229z M218.383,361.075h1.613c0.562,0,0.979-0.176,1.25-0.53
	c0.271-0.35,0.407-0.897,0.407-1.641v-9.938c0-0.846-0.206-1.468-0.614-1.864c-0.41-0.395-1.051-0.591-1.928-0.591h-0.728V361.075z"
	/>
<polygon fill="#585857" points="230.731,364.116 230.731,343.471 239.04,343.471 239.04,346.454 233.914,346.454 233.914,351.865 
	237.608,351.865 237.608,354.849 233.914,354.849 233.914,361.018 239.04,361.018 239.04,364.116 "/>
<rect x="253.284" y="343.469" fill="#585857" width="3.242" height="20.647"/>
<path fill="#585857" d="M262.647,364.116v-20.646h2.856l4.041,12.336c0.075,0.237,0.168,0.553,0.277,0.941
	c0.11,0.39,0.222,0.811,0.335,1.257c-0.104-0.6-0.19-1.153-0.257-1.662c-0.066-0.509-0.1-0.885-0.1-1.121v-11.751h2.984v20.646
	H269.8l-3.882-11.409c-0.02-0.046-0.043-0.118-0.072-0.213c-0.267-0.781-0.466-1.458-0.6-2.028c0.114,0.723,0.201,1.326,0.264,1.808
	c0.062,0.479,0.093,0.83,0.093,1.049v10.794H262.647z"/>
<path fill="#585857" d="M278.964,364.116v-20.646h2.856l4.041,12.336c0.075,0.237,0.169,0.553,0.277,0.941
	c0.11,0.39,0.222,0.811,0.335,1.257c-0.104-0.6-0.19-1.153-0.255-1.662c-0.067-0.509-0.102-0.885-0.102-1.121v-11.751h2.985v20.646
	h-2.985l-3.882-11.409c-0.02-0.046-0.042-0.118-0.071-0.213c-0.267-0.781-0.467-1.458-0.6-2.028
	c0.114,0.723,0.202,1.326,0.264,1.808c0.062,0.479,0.093,0.83,0.093,1.049v10.794H278.964z"/>
<path fill="#585857" d="M294.896,348.239c0-1.627,0.443-2.901,1.326-3.826c0.885-0.922,2.109-1.385,3.67-1.385
	c1.475,0,2.645,0.474,3.505,1.42c0.861,0.948,1.292,2.239,1.292,3.876v10.581c0,1.809-0.425,3.202-1.278,4.183
	c-0.853,0.979-2.063,1.471-3.634,1.471c-1.589,0-2.8-0.488-3.632-1.464c-0.834-0.974-1.25-2.401-1.25-4.275V348.239z
	 M301.419,359.561V348.04c0-0.714-0.139-1.25-0.414-1.606c-0.275-0.357-0.686-0.535-1.228-0.535s-0.951,0.178-1.228,0.535
	c-0.276,0.356-0.414,0.893-0.414,1.606v11.521c0,0.714,0.138,1.253,0.414,1.615c0.277,0.361,0.685,0.542,1.228,0.542
	s0.953-0.181,1.228-0.542C301.281,360.813,301.419,360.274,301.419,359.561"/>
<path fill="#585857" d="M309.155,343.471h3.113l1.899,12.222c0.123,0.781,0.211,1.516,0.264,2.206
	c0.051,0.689,0.079,1.388,0.079,2.092v0.371c0.029-0.903,0.073-1.754,0.135-2.549c0.062-0.795,0.135-1.501,0.222-2.12l1.842-12.222
	h3.125l-3.655,20.646h-3.326L309.155,343.471z"/>
<path fill="#585857" d="M323.187,364.116l3.399-20.645h4.155l3.383,20.645h-3.27l-0.642-4.469h-3.213l-0.685,4.469H323.187z
	 M327.399,356.721h2.428l-1.085-8.625h-0.2L327.399,356.721z"/>
<path fill="#585857" d="M338.49,358.819v-10.58c0-1.627,0.443-2.901,1.328-3.826c0.885-0.922,2.107-1.385,3.669-1.385
	c1.476,0,2.643,0.474,3.504,1.42c0.862,0.948,1.292,2.239,1.292,3.876v1.986h-3.27v-2.271c0-0.714-0.137-1.25-0.414-1.606
	c-0.275-0.357-0.684-0.535-1.228-0.535c-0.541,0-0.951,0.178-1.227,0.535c-0.276,0.356-0.414,0.893-0.414,1.606v11.521
	c0,0.714,0.138,1.253,0.414,1.615c0.275,0.361,0.686,0.542,1.227,0.542c0.544,0,0.953-0.181,1.228-0.542
	c0.277-0.362,0.414-0.901,0.414-1.615v-2.812h3.27v2.157c0,1.809-0.425,3.202-1.278,4.183c-0.851,0.979-2.062,1.472-3.634,1.472
	c-1.608,0-2.824-0.486-3.646-1.457C338.901,362.132,338.49,360.704,338.49,358.819"/>
<rect x="353.935" y="343.469" fill="#585857" width="3.242" height="20.647"/>
<path fill="#585857" d="M362.913,348.239c0-1.627,0.443-2.901,1.33-3.826c0.884-0.922,2.108-1.385,3.668-1.385
	c1.478,0,2.644,0.474,3.505,1.42c0.862,0.948,1.294,2.239,1.294,3.876v10.581c0,1.809-0.428,3.202-1.279,4.183
	c-0.852,0.979-2.064,1.472-3.634,1.472c-1.59,0-2.801-0.489-3.635-1.465c-0.833-0.974-1.25-2.401-1.25-4.275V348.239z
	 M369.438,359.561V348.04c0-0.714-0.138-1.25-0.413-1.606c-0.276-0.357-0.687-0.535-1.229-0.535c-0.543,0-0.951,0.178-1.229,0.535
	c-0.275,0.356-0.415,0.893-0.415,1.606v11.521c0,0.714,0.139,1.253,0.415,1.615c0.277,0.361,0.685,0.542,1.229,0.542
	c0.542,0,0.952-0.181,1.229-0.542C369.3,360.813,369.438,360.274,369.438,359.561 M368.496,342.429h-2.313l1.385-3.171h3.627
	L368.496,342.429z"/>
<path fill="#585857" d="M378.53,364.116v-20.646h2.856l4.041,12.336c0.075,0.237,0.168,0.553,0.277,0.941
	c0.11,0.39,0.222,0.811,0.336,1.257c-0.104-0.6-0.189-1.153-0.256-1.662s-0.101-0.885-0.101-1.121v-11.751h2.984v20.646h-2.984
	l-3.882-11.409c-0.021-0.046-0.045-0.118-0.073-0.213c-0.266-0.781-0.466-1.458-0.6-2.028c0.114,0.723,0.201,1.326,0.265,1.808
	c0.061,0.479,0.092,0.83,0.092,1.049v10.794H378.53z"/>
<polygon fill="#585857" points="394.848,364.116 394.848,360.874 397.888,360.874 397.888,364.116 396.246,367.771 394.848,367.771 
	395.889,364.116 "/>
<polygon fill="#585857" points="412.917,364.116 412.917,343.471 416.071,343.471 416.071,361.133 421.012,361.133 421.012,364.116 
	"/>
<rect x="425.721" y="343.469" fill="#585857" width="3.241" height="20.647"/>
<path fill="#585857" d="M435.086,364.116v-20.647h4.21c1.694,0,3.002,0.472,3.927,1.408c0.921,0.938,1.385,2.262,1.385,3.976
	c0,1.028-0.182,1.929-0.542,2.707c-0.362,0.775-0.919,1.444-1.67,2.005c0.845,0.485,1.471,1.136,1.877,1.948
	c0.404,0.814,0.605,1.841,0.605,3.077c0,1.886-0.413,3.277-1.241,4.177c-0.829,0.899-2.114,1.35-3.854,1.35H435.086z
	 M438.24,352.065h1.284c0.582,0,1.033-0.247,1.357-0.743c0.323-0.493,0.485-1.188,0.485-2.083c0-0.981-0.164-1.69-0.493-2.128
	c-0.328-0.438-0.863-0.657-1.606-0.657h-1.026V352.065z M438.24,361.131h1.369c0.686,0,1.188-0.237,1.507-0.714
	c0.318-0.474,0.479-1.222,0.479-2.241c0-1.122-0.179-1.926-0.536-2.405s-0.954-0.72-1.793-0.72h-1.026V361.131z"/>
<polygon fill="#585857" points="450.401,364.116 450.401,343.471 458.71,343.471 458.71,346.454 453.584,346.454 453.584,351.865 
	457.28,351.865 457.28,354.849 453.584,354.849 453.584,361.018 458.71,361.018 458.71,364.116 "/>
<path fill="#585857" d="M467.246,355.436v8.681h-3.184v-20.646h4.668c1.751,0,3.018,0.471,3.799,1.412
	c0.779,0.942,1.171,2.463,1.171,4.556c0,1.296-0.158,2.341-0.474,3.142c-0.312,0.801-0.829,1.447-1.54,1.941l2.341,9.595h-3.298
	l-1.972-8.681H467.246z M467.246,346.454v5.998h1.256c0.733,0,1.243-0.224,1.528-0.664c0.285-0.443,0.428-1.264,0.428-2.464
	c0-1.085-0.149-1.834-0.451-2.249c-0.298-0.413-0.839-0.621-1.62-0.621H467.246z"/>
<path fill="#585857" d="M805.35,364.116v-20.647h4.212c1.694,0,3.003,0.472,3.927,1.408c0.923,0.938,1.385,2.262,1.385,3.976
	c0,1.028-0.181,1.929-0.543,2.707c-0.361,0.775-0.919,1.444-1.671,2.005c0.849,0.485,1.475,1.136,1.879,1.948
	c0.404,0.814,0.606,1.841,0.606,3.077c0,1.886-0.414,3.277-1.242,4.177s-2.112,1.35-3.854,1.35H805.35z M808.506,352.065h1.284
	c0.581,0,1.033-0.247,1.356-0.743c0.323-0.493,0.485-1.188,0.485-2.083c0-0.981-0.164-1.69-0.492-2.128
	c-0.329-0.438-0.864-0.657-1.606-0.657h-1.027V352.065z M808.506,361.131h1.37c0.686,0,1.188-0.237,1.507-0.714
	c0.319-0.474,0.478-1.222,0.478-2.241c0-1.122-0.178-1.926-0.535-2.405s-0.954-0.72-1.792-0.72h-1.027V361.131z"/>
<polygon fill="#585857" points="820.667,364.116 820.667,343.471 828.977,343.471 828.977,346.454 823.849,346.454 823.849,351.865 
	827.546,351.865 827.546,354.849 823.849,354.849 823.849,361.018 828.977,361.018 828.977,364.116 "/>
<path fill="#585857" d="M837.512,355.436v8.681h-3.184v-20.646h4.669c1.751,0,3.018,0.471,3.797,1.412
	c0.78,0.942,1.171,2.463,1.171,4.556c0,1.296-0.157,2.341-0.473,3.142c-0.312,0.801-0.827,1.447-1.541,1.941l2.343,9.595h-3.301
	l-1.969-8.681H837.512z M837.512,346.454v5.998h1.256c0.734,0,1.243-0.224,1.528-0.664c0.285-0.443,0.429-1.264,0.429-2.464
	c0-1.085-0.15-1.834-0.45-2.249c-0.3-0.413-0.84-0.621-1.621-0.621H837.512z"/>
<polygon fill="#585857" points="849.645,364.116 849.645,343.471 857.954,343.471 857.954,346.454 852.827,346.454 852.827,351.865 
	856.522,351.865 856.522,354.849 852.827,354.849 852.827,361.018 857.954,361.018 857.954,364.116 "/>
<polygon fill="#585857" points="477.395,346.454 477.395,343.471 487.188,343.471 487.188,346.454 483.877,346.454 483.877,364.116 
	480.693,364.116 480.693,346.454 "/>
<path fill="#585857" d="M489.327,364.116l3.399-20.645h4.154l3.383,20.645h-3.269l-0.643-4.469h-3.213l-0.685,4.469H489.327z
	 M493.54,356.721h2.428l-1.085-8.625h-0.201L493.54,356.721z"/>
<path fill="#585857" d="M505.017,364.116v-20.647h4.525c1.752,0,3.049,0.463,3.891,1.388c0.843,0.922,1.264,2.35,1.264,4.282v9.225
	c0,2.006-0.4,3.468-1.2,4.383c-0.798,0.913-2.069,1.37-3.812,1.37H505.017z M508.172,361.075h1.613c0.562,0,0.978-0.176,1.249-0.53
	c0.271-0.35,0.406-0.897,0.406-1.641v-9.938c0-0.846-0.205-1.468-0.613-1.864c-0.409-0.395-1.052-0.591-1.928-0.591h-0.728V361.075z
	"/>
<polygon fill="#585857" points="520.519,364.116 520.519,360.874 523.56,360.874 523.56,364.116 521.918,367.771 520.519,367.771 
	521.562,364.116 "/>
<polygon fill="#585857" points="594.574,364.116 594.574,360.874 597.616,360.874 597.616,364.116 595.975,367.771 594.574,367.771 
	595.618,364.116 "/>
<path fill="#585857" d="M537.118,364.116l3.397-20.645h4.156l3.383,20.645h-3.271l-0.642-4.469h-3.212l-0.687,4.469H537.118z
	 M541.33,356.721h2.427l-1.085-8.625h-0.199L541.33,356.721z"/>
<path fill="#585857" d="M555.961,355.436v8.681h-3.184v-20.646h4.669c1.751,0,3.018,0.471,3.798,1.412
	c0.781,0.942,1.17,2.463,1.17,4.556c0,1.296-0.155,2.341-0.47,3.142s-0.828,1.447-1.542,1.941l2.341,9.595h-3.298l-1.97-8.681
	H555.961z M555.961,346.454v5.998h1.257c0.733,0,1.242-0.224,1.528-0.664c0.285-0.443,0.428-1.264,0.428-2.464
	c0-1.085-0.149-1.834-0.449-2.249c-0.3-0.413-0.841-0.621-1.62-0.621H555.961z"/>
<polygon fill="#585857" points="566.109,346.454 566.109,343.471 575.904,343.471 575.904,346.454 572.593,346.454 572.593,364.116 
	569.407,364.116 569.407,346.454 "/>
<polygon fill="#585857" points="580.3,364.116 580.3,343.471 588.609,343.471 588.609,346.454 583.481,346.454 583.481,351.865 
	587.177,351.865 587.177,354.849 583.481,354.849 583.481,361.018 588.609,361.018 588.609,364.116 "/>
<polygon fill="#585857" points="748.997,343.471 752.225,343.471 754.294,351.723 754.494,351.723 756.464,343.471 759.705,343.471 
	755.993,355.549 755.993,364.116 752.81,364.116 752.81,355.936 "/>
<polygon fill="#585857" points="611.444,364.116 611.444,343.471 619.754,343.471 619.754,346.454 614.628,346.454 614.628,351.865 
	618.323,351.865 618.323,354.849 614.628,354.849 614.628,361.018 619.754,361.018 619.754,364.116 "/>
<path fill="#585857" d="M625.134,364.116v-20.647h4.526c1.752,0,3.049,0.463,3.891,1.388c0.843,0.922,1.264,2.35,1.264,4.282v9.225
	c0,2.006-0.399,3.468-1.201,4.383c-0.797,0.913-2.067,1.37-3.811,1.37H625.134z M628.29,361.075h1.613
	c0.562,0,0.978-0.176,1.249-0.53c0.272-0.35,0.407-0.897,0.407-1.641v-9.938c0-0.846-0.206-1.468-0.613-1.864
	c-0.41-0.395-1.053-0.591-1.929-0.591h-0.728V361.075z"/>
<path fill="#585857" d="M640.395,343.471h3.255v15.991c0,0.6,0.155,1.078,0.465,1.435c0.31,0.357,0.717,0.536,1.22,0.536
	c0.506,0,0.899-0.176,1.186-0.529c0.286-0.353,0.428-0.833,0.428-1.441v-15.991h3.242v15.435c0,1.817-0.421,3.216-1.265,4.189
	c-0.842,0.976-2.049,1.464-3.619,1.464c-1.589,0-2.805-0.491-3.647-1.471c-0.842-0.98-1.264-2.403-1.264-4.269V343.471z"/>
<path fill="#585857" d="M655.812,358.819v-10.58c0-1.627,0.442-2.901,1.328-3.826c0.886-0.922,2.108-1.385,3.669-1.385
	c1.475,0,2.644,0.474,3.505,1.42c0.862,0.948,1.293,2.239,1.293,3.876v1.986h-3.27v-2.271c0-0.714-0.139-1.25-0.414-1.606
	c-0.276-0.357-0.687-0.535-1.229-0.535c-0.543,0-0.951,0.178-1.228,0.535c-0.276,0.356-0.414,0.893-0.414,1.606v11.521
	c0,0.714,0.138,1.253,0.414,1.615c0.276,0.361,0.685,0.542,1.228,0.542c0.542,0,0.952-0.181,1.229-0.542
	c0.275-0.362,0.414-0.901,0.414-1.615v-2.812h3.27v2.157c0,1.809-0.427,3.202-1.278,4.183c-0.853,0.979-2.062,1.472-3.634,1.472
	c-1.608,0-2.824-0.486-3.648-1.457C656.224,362.132,655.812,360.704,655.812,358.819"/>
<path fill="#585857" d="M669.787,364.116l3.396-20.645h4.156l3.384,20.645h-3.27l-0.644-4.469h-3.212l-0.686,4.469H669.787z
	 M673.998,356.721h2.428l-1.086-8.625h-0.199L673.998,356.721z"/>
<path fill="#585857" d="M685.09,358.819v-10.58c0-1.627,0.442-2.901,1.327-3.826c0.886-0.922,2.108-1.385,3.669-1.385
	c1.476,0,2.645,0.474,3.506,1.42c0.861,0.948,1.291,2.239,1.291,3.876v1.986h-3.269v-2.271c0-0.714-0.138-1.25-0.414-1.606
	c-0.276-0.357-0.686-0.535-1.229-0.535c-0.542,0-0.951,0.178-1.227,0.535c-0.276,0.356-0.415,0.893-0.415,1.606v11.521
	c0,0.714,0.139,1.253,0.415,1.615c0.275,0.361,0.685,0.542,1.227,0.542c0.543,0,0.952-0.181,1.229-0.542
	c0.276-0.362,0.414-0.901,0.414-1.615v-2.812h3.269v2.157c0,1.809-0.425,3.202-1.277,4.183c-0.852,0.979-2.062,1.472-3.634,1.472
	c-1.607,0-2.825-0.486-3.647-1.457C685.501,362.132,685.09,360.704,685.09,358.819"/>
<rect x="700.535" y="343.469" fill="#585857" width="3.241" height="20.647"/>
<path fill="#585857" d="M709.513,348.239c0-1.627,0.443-2.901,1.328-3.826c0.885-0.922,2.107-1.385,3.669-1.385
	c1.476,0,2.644,0.474,3.506,1.42c0.86,0.948,1.291,2.239,1.291,3.876v10.581c0,1.809-0.425,3.202-1.277,4.183
	c-0.852,0.979-2.063,1.472-3.634,1.472c-1.591,0-2.802-0.489-3.634-1.465c-0.833-0.974-1.249-2.401-1.249-4.275V348.239z
	 M716.037,359.561V348.04c0-0.714-0.14-1.25-0.413-1.606c-0.276-0.357-0.686-0.535-1.229-0.535c-0.542,0-0.952,0.178-1.229,0.535
	c-0.276,0.356-0.413,0.893-0.413,1.606v11.521c0,0.714,0.137,1.253,0.413,1.615c0.276,0.361,0.687,0.542,1.229,0.542
	c0.543,0,0.952-0.181,1.229-0.542C715.897,360.813,716.037,360.274,716.037,359.561 M715.096,342.429h-2.313l1.385-3.171h3.627
	L715.096,342.429z"/>
<path fill="#585857" d="M725.13,364.116v-20.646h2.854l4.041,12.336c0.077,0.237,0.169,0.553,0.279,0.941
	c0.108,0.39,0.22,0.811,0.335,1.257c-0.104-0.6-0.19-1.153-0.257-1.662c-0.067-0.509-0.101-0.885-0.101-1.121v-11.751h2.984v20.646
	h-2.984l-3.884-11.409c-0.018-0.046-0.042-0.118-0.071-0.213c-0.266-0.781-0.465-1.458-0.6-2.028
	c0.115,0.723,0.202,1.326,0.266,1.808c0.061,0.479,0.092,0.83,0.092,1.049v10.794H725.13z"/>
<path fill="#585857" d="M773.766,358.876l3.041-0.456c0.058,1.046,0.257,1.82,0.6,2.32c0.342,0.5,0.847,0.749,1.514,0.749
	c0.58,0,1.051-0.184,1.414-0.55c0.36-0.366,0.541-0.849,0.541-1.448c0-1.076-0.856-2.467-2.569-4.171
	c-0.134-0.133-0.234-0.232-0.3-0.3c-1.676-1.675-2.751-2.962-3.227-3.86c-0.477-0.901-0.714-1.855-0.714-2.863
	c0-1.456,0.479-2.684,1.435-3.676c0.957-0.996,2.126-1.492,3.505-1.492c1.343,0,2.441,0.457,3.298,1.377
	c0.857,0.918,1.347,2.163,1.471,3.733l-3.112,0.442c-0.057-0.924-0.222-1.584-0.492-1.983c-0.271-0.401-0.688-0.601-1.249-0.601
	c-0.515,0-0.927,0.173-1.235,0.521c-0.311,0.347-0.464,0.81-0.464,1.393c0,1.196,0.999,2.764,2.999,4.697
	c0.075,0.075,0.138,0.136,0.185,0.187c1.466,1.425,2.427,2.592,2.884,3.496c0.458,0.904,0.687,1.917,0.687,3.041
	c0,1.505-0.468,2.738-1.4,3.705c-0.933,0.966-2.114,1.448-3.542,1.448c-1.578,0-2.833-0.504-3.761-1.513
	C774.343,362.065,773.841,360.665,773.766,358.876"/>
<path fill="#585857" d="M788.76,364.116l3.398-20.645h4.154l3.385,20.645h-3.271l-0.642-4.469h-3.213l-0.686,4.469H788.76z
	 M792.973,356.721h2.427l-1.087-8.625h-0.197L792.973,356.721z"/>
<g>
	<g>
		<defs>
			<rect id="SVGID_1_" x="97.75" y="58.691" width="804.884" height="262.586"/>
		</defs>
		<clipPath id="SVGID_2_">
			<use xlink:href="#SVGID_1_"  overflow="visible"/>
		</clipPath>
		<g clip-path="url(#SVGID_2_)">
			<defs>
				<path id="SVGID_3_" d="M211.169,134.818c-3.475-4.081-8.585-7.581-15.192-10.402c-6.594-2.809-15.208-4.174-26.331-4.174
					c-11.127,0-19.741,1.365-26.334,4.176c-6.584,2.81-11.719,6.29-15.265,10.342c-3.655,4.18-5.952,8.575-6.826,13.061
					c-0.761,3.896-1.131,6.896-1.131,9.174v162.493h33.294v-67.74c0-1.219,0.231-2.13,0.68-2.699
					c0.887-1.124,1.845-2.036,2.851-2.714c1.335-0.841,2.728-1.447,4.141-1.799l0.32-0.081l0.309-0.114
					c2.629-0.987,5.49-1.996,8.502-3c2.43-0.81,5.167-1.736,8.374-2.834c2.97-1.021,5.732-1.952,8.28-2.805l0.385-0.128l0.183-0.091
					l0.787-0.236c10.917-3.252,18.861-8.186,23.614-14.66c4.735-6.45,7.135-13.457,7.135-20.826v-42.766
					c0-2.253-0.368-5.252-1.131-9.175C216.942,143.358,214.708,138.987,211.169,134.818 M168.878,150.976
					c5.253,0,8.188,0.7,9.717,1.282c2.182,0.837,3.827,1.771,4.883,2.771c0.857,0.812,1.403,1.617,1.626,2.394
					c0.363,1.27,0.545,2.417,0.545,3.412v35.083c0,1.408-0.441,3.13-1.31,5.116c-0.497,1.135-2.34,2.326-5.056,3.268l-0.264,0.098
					c-0.737,0.295-1.572,0.6-2.503,0.91c-1.017,0.341-2.035,0.68-3.063,1.02c-2.078,0.694-4.389,1.508-7.076,2.491
					c-2.495,0.915-5.023,1.8-7.523,2.632c-1.899,0.636-3.731,1.27-5.471,1.894v-51.999c0-1.086,0.163-2.315,0.487-3.668
					c0.195-0.827,0.741-1.744,1.616-2.718c0.928-1.029,2.398-1.946,4.36-2.72C161.981,151.402,165.019,150.976,168.878,150.976"/>
			</defs>
			<clipPath id="SVGID_4_">
				<use xlink:href="#SVGID_3_"  overflow="visible"/>
			</clipPath>
			<path clip-path="url(#SVGID_4_)" fill="#C42479" d="M149.64,138.59c4.505,0,8.168-3.664,8.168-8.167
				c0-4.506-3.663-8.171-8.168-8.171c-4.504,0-8.17,3.665-8.17,8.171C141.469,134.926,145.135,138.59,149.64,138.59 M149.64,126.087
				c2.389,0,4.334,1.943,4.334,4.335c0,2.389-1.945,4.332-4.334,4.332s-4.335-1.943-4.335-4.332
				C145.305,128.031,147.251,126.087,149.64,126.087"/>
			<path clip-path="url(#SVGID_4_)" fill="#C42479" d="M149.619,228.502c-4.505,0-8.171,3.665-8.171,8.169s3.666,8.17,8.171,8.17
				c4.503,0,8.168-3.666,8.168-8.17S154.122,228.502,149.619,228.502 M149.619,241.005c-2.39,0-4.335-1.942-4.335-4.334
				c0-2.391,1.945-4.333,4.335-4.333c2.389,0,4.333,1.942,4.333,4.333C153.953,239.062,152.008,241.005,149.619,241.005"/>
			<path clip-path="url(#SVGID_4_)" fill="#C42479" d="M169.063,183.737l-6.829-8.746c-1.043-1.333-2.019,0-2.019,0l-22.284,29.402
				l-6.996,8.701l-0.037,0.04c-0.604,0.73-1.521,1.188-2.541,1.175c-1.795-0.021-3.232-1.497-3.21-3.292
				c0.008-0.775,0.288-1.485,0.75-2.035l0.035-0.038l7.146-8.77c0,0,1.121-1.349,0-2.781l-6.884-8.781l-20.308,25.912l10.612,13.904
				l17.902,0.042l11.165-14.063L169.063,183.737z"/>
			<path clip-path="url(#SVGID_4_)" fill="#C42479" d="M133.521,168.688l-7.621-10.292l-0.037-0.034
				c-0.458-0.556-0.733-1.265-0.74-2.041c-0.013-1.793,1.432-3.261,3.227-3.276c1.021-0.007,1.935,0.458,2.536,1.188l0.038,0.042
				l6.796,9.193l7.84-10.101l-8.694-11.629l-0.115-0.155c-1.731-2.084-4.27-3.104-6.785-2.981l-11.76,0.07
				c-1.051,0.007-1.982,0.514-2.572,1.295l-0.044,0.05l-9.708,12.704l20.085,25.919L133.521,168.688z"/>
			<path clip-path="url(#SVGID_4_)" fill="#C42479" d="M165.224,198.707l8.153,10.238l0.037,0.036
				c0.458,0.553,0.74,1.263,0.749,2.037c0.022,1.794-1.415,3.269-3.21,3.291c-1.02,0.012-1.939-0.445-2.543-1.173l-0.034-0.043
				l-7.195-9.364l-7.915,9.982l11.663,14.762l17.895-0.042l10.599-13.904l-20.448-25.984L165.224,198.707z"/>
			<path clip-path="url(#SVGID_4_)" fill="#C42479" d="M137.106,192.921c0,0,0.646,1.091,1.479,0l22.847-29.914l6.954-8.732
				l0.036-0.042c0.601-0.73,1.516-1.194,2.536-1.186c1.794,0.013,3.24,1.48,3.227,3.276c-0.005,0.774-0.282,1.485-0.739,2.04
				l-0.038,0.034l-7.395,9.12c-1.095,1.352,0,2.395,0,2.395l7.028,8.819l20.229-25.812l-9.553-12.901l-0.044-0.053
				c-0.589-0.778-1.521-1.285-2.571-1.293l-0.081-0.005l-11.68-0.065c-2.515-0.122-5.054,0.896-6.784,2.982l-32.795,42.087
				L137.106,192.921z"/>
			<path clip-path="url(#SVGID_4_)" fill="#C42479" d="M114.087,183.714c0-4.502-3.664-8.167-8.167-8.167
				c-4.505,0-8.171,3.666-8.171,8.167c0,4.505,3.666,8.171,8.171,8.171C110.424,191.885,114.087,188.22,114.087,183.714
				 M105.92,188.05c-2.39,0-4.335-1.943-4.335-4.335c0-2.389,1.945-4.332,4.335-4.332c2.389,0,4.334,1.943,4.334,4.332
				C110.254,186.106,108.309,188.05,105.92,188.05"/>
			<path clip-path="url(#SVGID_4_)" fill="#C42479" d="M193.258,175.543c-4.505,0-8.169,3.664-8.169,8.167
				c0,4.505,3.665,8.17,8.169,8.17s8.169-3.665,8.169-8.17C201.428,179.207,197.763,175.543,193.258,175.543 M193.258,188.045
				c-2.389,0-4.335-1.943-4.335-4.335c0-2.389,1.947-4.335,4.335-4.335s4.334,1.946,4.334,4.335
				C197.592,186.103,195.647,188.045,193.258,188.045"/>
		</g>
		<g clip-path="url(#SVGID_2_)">
			<defs>
				<rect id="SVGID_5_" x="243.493" y="122.291" width="33.04" height="197.196"/>
			</defs>
			<clipPath id="SVGID_6_">
				<use xlink:href="#SVGID_5_"  overflow="visible"/>
			</clipPath>
			<path clip-path="url(#SVGID_6_)" fill="#4DBAB2" d="M258.991,180.945c4.505,0,8.169-3.662,8.169-8.167
				c0-4.505-3.665-8.171-8.169-8.171s-8.171,3.666-8.171,8.171C250.82,177.283,254.486,180.945,258.991,180.945 M258.991,168.442
				c2.389,0,4.334,1.943,4.334,4.335c0,2.389-1.945,4.333-4.334,4.333s-4.335-1.944-4.335-4.333
				C254.656,170.386,256.603,168.442,258.991,168.442"/>
			<path clip-path="url(#SVGID_6_)" fill="#4DBAB2" d="M258.97,270.858c-4.505,0-8.171,3.663-8.171,8.167
				c0,4.506,3.666,8.172,8.171,8.172c4.505,0,8.167-3.666,8.167-8.172C267.138,274.521,263.475,270.858,258.97,270.858
				 M258.97,283.361c-2.39,0-4.335-1.942-4.335-4.336c0-2.389,1.945-4.334,4.335-4.334c2.389,0,4.334,1.945,4.334,4.334
				C263.304,281.419,261.359,283.361,258.97,283.361"/>
			<path clip-path="url(#SVGID_6_)" fill="#4DBAB2" d="M278.415,226.093l-6.829-8.746c-1.044-1.333-2.02,0-2.02,0l-22.285,29.401
				l-6.995,8.7l-0.037,0.041c-0.604,0.729-1.521,1.187-2.542,1.175c-1.795-0.022-3.231-1.497-3.21-3.291
				c0.008-0.775,0.288-1.486,0.75-2.035l0.036-0.036l7.145-8.771c0,0,1.121-1.347,0-2.78l-6.883-8.781l-20.308,25.913l10.612,13.904
				l17.902,0.042l11.165-14.063L278.415,226.093z"/>
			<path clip-path="url(#SVGID_6_)" fill="#4DBAB2" d="M242.873,211.044l-7.621-10.292l-0.037-0.034
				c-0.458-0.556-0.733-1.266-0.739-2.041c-0.015-1.794,1.431-3.262,3.226-3.275c1.021-0.007,1.935,0.455,2.536,1.187l0.038,0.042
				l6.797,9.194l7.839-10.102l-8.693-11.629l-0.115-0.155c-1.731-2.085-4.27-3.103-6.784-2.981l-11.759,0.069
				c-1.052,0.007-1.983,0.514-2.571,1.295l-0.046,0.05l-9.708,12.703l20.085,25.922L242.873,211.044z"/>
			<path clip-path="url(#SVGID_6_)" fill="#4DBAB2" d="M274.576,241.063l8.153,10.238l0.037,0.034
				c0.459,0.554,0.74,1.262,0.749,2.037c0.023,1.794-1.415,3.269-3.21,3.291c-1.02,0.012-1.939-0.446-2.543-1.174l-0.034-0.042
				l-7.195-9.365l-7.915,9.981l11.663,14.762l17.895-0.04l10.6-13.904l-20.448-25.984L274.576,241.063z"/>
			<path clip-path="url(#SVGID_6_)" fill="#4DBAB2" d="M246.457,235.276c0,0,0.646,1.093,1.479,0l22.847-29.912l6.954-8.733
				l0.036-0.042c0.601-0.731,1.517-1.195,2.536-1.187c1.794,0.011,3.24,1.479,3.227,3.274c-0.005,0.775-0.282,1.485-0.74,2.04
				l-0.037,0.036l-7.395,9.12c-1.096,1.353,0,2.395,0,2.395l7.028,8.817l20.229-25.813l-9.553-12.901l-0.045-0.051
				c-0.59-0.78-1.521-1.285-2.571-1.293l-0.08-0.005l-11.68-0.065c-2.515-0.122-5.054,0.896-6.785,2.981l-32.795,42.087
				L246.457,235.276z"/>
			<path clip-path="url(#SVGID_6_)" fill="#4DBAB2" d="M223.439,226.07c0-4.502-3.665-8.168-8.168-8.168
				c-4.504,0-8.17,3.666-8.17,8.168c0,4.505,3.666,8.171,8.17,8.171C219.775,234.241,223.439,230.575,223.439,226.07
				 M215.271,230.405c-2.39,0-4.335-1.942-4.335-4.335c0-2.389,1.945-4.331,4.335-4.331c2.389,0,4.334,1.942,4.334,4.331
				C219.605,228.463,217.66,230.405,215.271,230.405"/>
			<path clip-path="url(#SVGID_6_)" fill="#4DBAB2" d="M302.609,217.898c-4.504,0-8.169,3.665-8.169,8.168
				c0,4.505,3.665,8.17,8.169,8.17c4.506,0,8.169-3.665,8.169-8.17C310.779,221.563,307.115,217.898,302.609,217.898
				 M302.609,230.401c-2.389,0-4.335-1.944-4.335-4.335c0-2.389,1.946-4.336,4.335-4.336s4.334,1.947,4.334,4.336
				C306.943,228.457,304.998,230.401,302.609,230.401"/>
		</g>
		<g clip-path="url(#SVGID_2_)">
			<defs>
				<path id="SVGID_7_" d="M336.581,287.301c-1.681-1.841-2.462-3.942-2.462-6.613V122.291h-33.041v162.492
					c0,3.887,0.713,7.886,2.115,11.888c1.419,4.069,3.583,7.829,6.424,11.177c2.883,3.399,6.51,6.205,10.783,8.342
					c4.375,2.188,9.551,3.298,15.381,3.298h52.63v-29.712h-45.459C339.262,289.775,337.551,288.366,336.581,287.301"/>
			</defs>
			<clipPath id="SVGID_8_">
				<use xlink:href="#SVGID_7_"  overflow="visible"/>
			</clipPath>
			<path clip-path="url(#SVGID_8_)" fill="#3B76BB" d="M316.882,164.942c-4.505,0-8.171,3.664-8.171,8.167
				c0,4.506,3.666,8.171,8.171,8.171s8.168-3.665,8.168-8.171C325.05,168.606,321.387,164.942,316.882,164.942 M316.882,177.445
				c-2.39,0-4.335-1.943-4.335-4.335c0-2.389,1.945-4.332,4.335-4.332c2.389,0,4.334,1.943,4.334,4.332
				C321.216,175.502,319.271,177.445,316.882,177.445"/>
			<path clip-path="url(#SVGID_8_)" fill="#3B76BB" d="M336.326,120.177l-6.828-8.746c-1.044-1.334-2.021,0-2.021,0l-22.285,29.402
				l-6.995,8.701l-0.037,0.04c-0.604,0.729-1.521,1.187-2.542,1.176c-1.795-0.023-3.231-1.497-3.21-3.292
				c0.008-0.775,0.288-1.485,0.75-2.036l0.036-0.036l7.145-8.77c0,0,1.121-1.35,0-2.78l-6.884-8.782l-20.308,25.913l10.613,13.903
				l17.902,0.042l11.165-14.064L336.326,120.177z"/>
			<path clip-path="url(#SVGID_8_)" fill="#3B76BB" d="M332.487,135.146l8.153,10.239l0.037,0.034
				c0.459,0.553,0.74,1.263,0.749,2.037c0.022,1.796-1.416,3.269-3.208,3.292c-1.021,0.012-1.94-0.446-2.545-1.175l-0.034-0.042
				l-7.195-9.365l-7.915,9.984l11.663,14.759l17.895-0.041l10.599-13.905l-20.447-25.982L332.487,135.146z"/>
			<path clip-path="url(#SVGID_8_)" fill="#3B76BB" d="M304.369,129.361c0,0,0.646,1.093,1.479,0l22.847-29.914l6.954-8.731
				l0.036-0.042c0.601-0.732,1.517-1.195,2.536-1.188c1.795,0.013,3.24,1.48,3.227,3.276c-0.006,0.774-0.283,1.485-0.739,2.04
				l-0.038,0.034l-7.395,9.12c-1.095,1.352,0,2.395,0,2.395l7.028,8.819l20.229-25.813l-9.553-12.9l-0.045-0.052
				c-0.589-0.78-1.521-1.287-2.571-1.294l-0.08-0.006l-11.68-0.064c-2.515-0.122-5.053,0.896-6.784,2.981l-32.795,42.086
				L304.369,129.361z"/>
			<path clip-path="url(#SVGID_8_)" fill="#3B76BB" d="M281.351,120.154c0-4.502-3.663-8.167-8.167-8.167
				c-4.505,0-8.171,3.665-8.171,8.167c0,4.506,3.666,8.171,8.171,8.171C277.688,128.325,281.351,124.66,281.351,120.154
				 M273.183,124.489c-2.39,0-4.335-1.943-4.335-4.335c0-2.389,1.945-4.332,4.335-4.332c2.389,0,4.334,1.943,4.334,4.332
				C277.517,122.546,275.572,124.489,273.183,124.489"/>
			<path clip-path="url(#SVGID_8_)" fill="#3B76BB" d="M360.521,111.983c-4.504,0-8.168,3.662-8.168,8.167
				c0,4.505,3.664,8.171,8.168,8.171c4.505,0,8.169-3.666,8.169-8.171C368.69,115.646,365.026,111.983,360.521,111.983
				 M360.521,124.486c-2.389,0-4.335-1.943-4.335-4.335c0-2.389,1.947-4.334,4.335-4.334s4.334,1.946,4.334,4.334
				C364.855,122.542,362.91,124.486,360.521,124.486"/>
		</g>
		<g clip-path="url(#SVGID_2_)">
			<defs>
				<path id="SVGID_9_" d="M503.779,134.818c-3.474-4.081-8.583-7.581-15.189-10.402c-6.596-2.809-15.209-4.174-26.333-4.174
					c-11.128,0-19.741,1.365-26.334,4.176c-6.607,2.82-11.719,6.321-15.191,10.403c-3.539,4.165-5.776,8.541-6.643,13
					c-0.76,3.897-1.132,6.897-1.132,9.174v162.493h33.042v-67.74c0-1.219,0.23-2.13,0.679-2.699
					c0.885-1.124,1.843-2.036,2.847-2.714c1.336-0.841,2.73-1.447,4.143-1.799l15.789-5.246l0.07-0.024
					c3.104-1.078,6.034-2.108,8.735-3.071v83.294h33.295V156.994c0-2.256-0.369-5.254-1.131-9.175
					C509.552,143.358,507.318,138.986,503.779,134.818 M466.918,206.088c-2.998,1.028-6.336,2.183-10.017,3.467
					c-3.51,1.224-7.177,2.519-10.904,3.85v-52.058c0-1.087,0.16-2.316,0.484-3.668c0.195-0.827,0.742-1.744,1.617-2.718
					c0.929-1.029,2.398-1.946,4.362-2.721c2.13-0.838,5.17-1.264,9.027-1.264c5.251,0,8.189,0.7,9.717,1.282
					c2.182,0.837,3.828,1.771,4.883,2.771c0.857,0.812,1.404,1.617,1.627,2.396c0.361,1.27,0.545,2.416,0.545,3.41v35.083
					c0,1.407-0.44,3.128-1.31,5.116c-0.495,1.135-2.338,2.326-5.056,3.268l-0.355,0.123l-0.209,0.106
					C471.064,204.636,470.123,204.99,466.918,206.088"/>
			</defs>
			<clipPath id="SVGID_10_">
				<use xlink:href="#SVGID_9_"  overflow="visible"/>
			</clipPath>
			<path clip-path="url(#SVGID_10_)" fill="#C42479" d="M495.079,205.906c4.506,0,8.169-3.664,8.169-8.167
				c0-4.505-3.663-8.171-8.169-8.171c-4.503,0-8.17,3.666-8.17,8.171C486.909,202.242,490.576,205.906,495.079,205.906
				 M495.079,193.403c2.39,0,4.334,1.943,4.334,4.335c0,2.389-1.944,4.332-4.334,4.332c-2.389,0-4.335-1.943-4.335-4.332
				C490.744,195.346,492.69,193.403,495.079,193.403"/>
			<path clip-path="url(#SVGID_10_)" fill="#C42479" d="M495.059,295.817c-4.506,0-8.172,3.665-8.172,8.169s3.666,8.17,8.172,8.17
				c4.504,0,8.169-3.666,8.169-8.17S499.562,295.817,495.059,295.817 M495.059,308.32c-2.389,0-4.336-1.942-4.336-4.334
				c0-2.39,1.947-4.334,4.336-4.334s4.334,1.944,4.334,4.334C499.393,306.378,497.447,308.32,495.059,308.32"/>
			<path clip-path="url(#SVGID_10_)" fill="#C42479" d="M514.503,251.053l-6.829-8.746c-1.043-1.333-2.021,0-2.021,0l-22.283,29.401
				l-6.996,8.701l-0.038,0.039c-0.603,0.73-1.52,1.188-2.541,1.177c-1.796-0.023-3.232-1.498-3.21-3.292
				c0.008-0.775,0.29-1.485,0.75-2.035l0.035-0.037l7.145-8.77c0,0,1.123-1.349,0-2.781l-6.884-8.782l-20.308,25.913l10.613,13.904
				l17.902,0.042l11.165-14.063L514.503,251.053z"/>
			<path clip-path="url(#SVGID_10_)" fill="#C42479" d="M478.961,236.004l-7.621-10.292l-0.038-0.035
				c-0.458-0.555-0.732-1.265-0.738-2.04c-0.013-1.793,1.431-3.262,3.227-3.275c1.02-0.007,1.934,0.454,2.537,1.188l0.036,0.042
				l6.797,9.192L491,220.682l-8.692-11.628l-0.114-0.155c-1.733-2.085-4.273-3.104-6.787-2.981l-11.759,0.069
				c-1.051,0.007-1.983,0.514-2.571,1.295l-0.044,0.05l-9.708,12.704l20.086,25.92L478.961,236.004z"/>
			<path clip-path="url(#SVGID_10_)" fill="#C42479" d="M510.664,266.022l8.154,10.238l0.036,0.035
				c0.459,0.553,0.739,1.262,0.749,2.037c0.022,1.794-1.415,3.269-3.21,3.292c-1.021,0.011-1.939-0.446-2.544-1.174l-0.034-0.044
				l-7.194-9.363l-7.916,9.981l11.663,14.762l17.895-0.042l10.6-13.904l-20.447-25.983L510.664,266.022z"/>
			<path clip-path="url(#SVGID_10_)" fill="#C42479" d="M482.545,260.237c0,0,0.646,1.09,1.48,0l22.846-29.914l6.955-8.732
				l0.035-0.042c0.601-0.73,1.517-1.196,2.535-1.187c1.796,0.013,3.24,1.479,3.228,3.276c-0.005,0.773-0.283,1.484-0.74,2.04
				l-0.036,0.034l-7.396,9.12c-1.095,1.353,0,2.395,0,2.395l7.028,8.819l20.229-25.813l-9.552-12.9l-0.045-0.053
				c-0.589-0.778-1.52-1.285-2.571-1.292l-0.08-0.006l-11.68-0.065c-2.516-0.121-5.054,0.897-6.785,2.981l-32.795,42.089
				L482.545,260.237z"/>
			<path clip-path="url(#SVGID_10_)" fill="#C42479" d="M459.529,251.031c0-4.503-3.665-8.169-8.17-8.169
				c-4.504,0-8.17,3.666-8.17,8.169c0,4.504,3.666,8.17,8.17,8.17C455.865,259.201,459.529,255.535,459.529,251.031
				 M451.359,255.365c-2.387,0-4.333-1.943-4.333-4.334s1.946-4.333,4.333-4.333c2.39,0,4.334,1.942,4.334,4.333
				S453.749,255.365,451.359,255.365"/>
			<path clip-path="url(#SVGID_10_)" fill="#C42479" d="M538.697,242.859c-4.504,0-8.168,3.663-8.168,8.166
				c0,4.507,3.664,8.171,8.168,8.171c4.506,0,8.169-3.664,8.169-8.171C546.866,246.522,543.203,242.859,538.697,242.859
				 M538.697,255.362c-2.389,0-4.334-1.944-4.334-4.337c0-2.388,1.945-4.334,4.334-4.334c2.391,0,4.334,1.946,4.334,4.334
				C543.031,253.418,541.088,255.362,538.697,255.362"/>
		</g>
		<g clip-path="url(#SVGID_2_)">
			<defs>
				<path id="SVGID_11_" d="M629.392,218.358c3.522-5.842,5.31-12.099,5.31-18.599v-42.766c0-2.256-0.369-5.254-1.132-9.175
					c-0.873-4.461-3.107-8.833-6.645-13.001c-3.476-4.081-8.585-7.581-15.192-10.402c-6.595-2.809-15.208-4.174-26.33-4.174
					c-11.128,0-19.741,1.365-26.336,4.176c-6.608,2.82-11.719,6.321-15.189,10.403c-3.541,4.165-5.776,8.541-6.644,13
					c-0.762,3.894-1.132,6.895-1.132,9.174v162.493h33.296V251.46c0.105-1.197,0.409-2.122,0.928-2.827
					c0.69-0.938,1.451-1.644,2.216-2.07c1.562-0.851,3.229-1.576,4.952-2.152l3.726-1.241c1.223-0.353,2.574-0.813,4.012-1.362
					l27.062,77.681h35.261l-31.181-89.314C622.162,227.062,626.53,223.103,629.392,218.358 M569.397,161.348
					c0-1.087,0.162-2.316,0.485-3.668c0.195-0.827,0.741-1.744,1.618-2.718c0.927-1.029,2.396-1.946,4.358-2.72
					c2.133-0.839,5.171-1.266,9.029-1.266c5.253,0,8.188,0.7,9.718,1.282c2.182,0.837,3.826,1.771,4.884,2.771
					c0.856,0.812,1.402,1.617,1.624,2.396c0.364,1.27,0.549,2.416,0.549,3.41v35.341c0,0.816-0.239,2.299-1.377,4.725
					c-0.583,1.243-2.379,2.46-5.058,3.426l-0.196,0.074c-0.735,0.295-1.571,0.6-2.503,0.91c-1.019,0.341-2.038,0.68-3.062,1.02
					c-2.07,0.691-4.383,1.505-7.077,2.491c-2.494,0.915-5.023,1.8-7.522,2.632c-1.902,0.636-3.733,1.27-5.47,1.893V161.348z"/>
			</defs>
			<clipPath id="SVGID_12_">
				<use xlink:href="#SVGID_11_"  overflow="visible"/>
			</clipPath>
			<path clip-path="url(#SVGID_12_)" fill="#3B76BB" d="M601.713,180.975c4.506,0,8.169-3.664,8.169-8.167
				c0-4.505-3.663-8.171-8.169-8.171c-4.504,0-8.169,3.666-8.169,8.171C593.544,177.311,597.209,180.975,601.713,180.975
				 M601.713,168.472c2.39,0,4.334,1.943,4.334,4.335c0,2.389-1.944,4.332-4.334,4.332c-2.389,0-4.334-1.943-4.334-4.332
				C597.379,170.416,599.324,168.472,601.713,168.472"/>
			<path clip-path="url(#SVGID_12_)" fill="#3B76BB" d="M601.692,270.888c-4.505,0-8.171,3.665-8.171,8.167
				c0,4.506,3.666,8.171,8.171,8.171s8.168-3.665,8.168-8.171C609.86,274.553,606.197,270.888,601.692,270.888 M601.692,283.391
				c-2.389,0-4.334-1.944-4.334-4.336c0-2.389,1.945-4.332,4.334-4.332c2.39,0,4.334,1.943,4.334,4.332
				C606.026,281.446,604.082,283.391,601.692,283.391"/>
			<path clip-path="url(#SVGID_12_)" fill="#3B76BB" d="M621.138,226.123l-6.83-8.746c-1.042-1.334-2.02,0-2.02,0l-22.284,29.4
				l-6.996,8.7l-0.038,0.041c-0.602,0.729-1.52,1.188-2.54,1.177c-1.795-0.024-3.231-1.498-3.21-3.293
				c0.008-0.775,0.29-1.484,0.75-2.035l0.036-0.036l7.146-8.771c0,0,1.121-1.35,0-2.78l-6.886-8.782l-20.307,25.913l10.612,13.904
				l17.9,0.042l11.167-14.064L621.138,226.123z"/>
			<path clip-path="url(#SVGID_12_)" fill="#3B76BB" d="M585.595,211.074l-7.621-10.292l-0.036-0.034
				c-0.457-0.556-0.733-1.264-0.739-2.041c-0.013-1.793,1.431-3.261,3.227-3.274c1.021-0.008,1.935,0.455,2.537,1.187l0.036,0.041
				l6.797,9.193l7.838-10.101l-8.691-11.629l-0.116-0.156c-1.73-2.084-4.271-3.103-6.784-2.981l-11.759,0.069
				c-1.053,0.009-1.984,0.514-2.573,1.295l-0.044,0.05l-9.709,12.704l20.086,25.92L585.595,211.074z"/>
			<path clip-path="url(#SVGID_12_)" fill="#3B76BB" d="M617.297,241.091l8.155,10.238l0.036,0.036
				c0.459,0.553,0.739,1.264,0.749,2.036c0.022,1.796-1.414,3.269-3.21,3.292c-1.02,0.012-1.938-0.446-2.544-1.174l-0.035-0.043
				l-7.193-9.364l-7.916,9.983l11.664,14.76l17.896-0.04l10.599-13.905l-20.448-25.981L617.297,241.091z"/>
			<path clip-path="url(#SVGID_12_)" fill="#3B76BB" d="M589.18,235.307c0,0,0.646,1.092,1.478,0l22.849-29.914l6.954-8.731
				l0.035-0.043c0.601-0.731,1.517-1.194,2.535-1.187c1.796,0.013,3.24,1.481,3.228,3.276c-0.006,0.774-0.283,1.485-0.739,2.04
				l-0.037,0.034l-7.395,9.121c-1.095,1.352,0,2.394,0,2.394l7.026,8.819l20.23-25.812l-9.554-12.901l-0.044-0.052
				c-0.589-0.778-1.521-1.285-2.571-1.292l-0.08-0.006l-11.68-0.064c-2.516-0.123-5.054,0.896-6.785,2.981l-32.794,42.086
				L589.18,235.307z"/>
			<path clip-path="url(#SVGID_12_)" fill="#3B76BB" d="M566.163,226.1c0-4.503-3.665-8.168-8.169-8.168
				c-4.506,0-8.17,3.665-8.17,8.168c0,4.505,3.664,8.17,8.17,8.17C562.498,234.27,566.163,230.604,566.163,226.1 M557.994,230.435
				c-2.39,0-4.335-1.943-4.335-4.335c0-2.389,1.945-4.333,4.335-4.333c2.389,0,4.332,1.944,4.332,4.333
				C562.326,228.491,560.383,230.435,557.994,230.435"/>
			<path clip-path="url(#SVGID_12_)" fill="#3B76BB" d="M645.333,217.928c-4.506,0-8.169,3.663-8.169,8.168s3.663,8.171,8.169,8.171
				c4.504,0,8.167-3.666,8.167-8.171S649.837,217.928,645.333,217.928 M645.333,230.431c-2.391,0-4.336-1.942-4.336-4.335
				c0-2.389,1.945-4.334,4.336-4.334c2.389,0,4.332,1.945,4.332,4.334C649.665,228.488,647.722,230.431,645.333,230.431"/>
		</g>
		<g clip-path="url(#SVGID_2_)">
			<defs>
				<path id="SVGID_13_" d="M679.335,125.588c-4.271,2.136-7.898,4.942-10.776,8.337c-2.842,3.346-5.003,7.106-6.426,11.175
					c-1.405,4.011-2.116,8.012-2.116,11.894v127.789c0,3.887,0.712,7.886,2.113,11.888c1.421,4.069,3.584,7.831,6.423,11.177
					c2.884,3.398,6.511,6.205,10.783,8.342c4.376,2.188,9.553,3.298,15.383,3.298h55.958v-29.454h-48.788
					c-3.644,0-5.348-1.45-6.316-2.546c-1.717-1.935-2.518-4.094-2.518-6.8v-43.921h46.354v-31.757h-46.354v-43.662
					c0-2.879,0.801-5.122,2.521-7.062c0.965-1.09,2.67-2.541,6.312-2.541h48.788v-29.454h-55.958
					C688.889,122.291,683.712,123.4,679.335,125.588"/>
			</defs>
			<clipPath id="SVGID_14_">
				<use xlink:href="#SVGID_13_"  overflow="visible"/>
			</clipPath>
			<path clip-path="url(#SVGID_14_)" fill="#4DBAB2" d="M685.269,189.902c-4.504,0-8.17,3.664-8.17,8.167
				c0,4.506,3.666,8.171,8.17,8.171c4.505,0,8.168-3.665,8.168-8.171C693.437,193.566,689.773,189.902,685.269,189.902
				 M685.269,202.405c-2.389,0-4.334-1.943-4.334-4.335c0-2.389,1.945-4.332,4.334-4.332c2.39,0,4.334,1.943,4.334,4.332
				C689.603,200.462,687.658,202.405,685.269,202.405"/>
			<path clip-path="url(#SVGID_14_)" fill="#4DBAB2" d="M704.714,145.137l-6.83-8.746c-1.042-1.334-2.02,0-2.02,0l-22.284,29.402
				l-6.996,8.701l-0.036,0.04c-0.604,0.729-1.521,1.187-2.542,1.176c-1.795-0.023-3.231-1.497-3.21-3.292
				c0.008-0.775,0.29-1.485,0.75-2.036l0.036-0.036l7.146-8.77c0,0,1.121-1.35,0-2.78l-6.886-8.782l-20.307,25.913l10.612,13.903
				l17.9,0.042l11.167-14.064L704.714,145.137z"/>
			<path clip-path="url(#SVGID_14_)" fill="#4DBAB2" d="M669.171,130.088l-7.621-10.291l-0.036-0.034
				c-0.457-0.557-0.733-1.265-0.739-2.042c-0.012-1.793,1.431-3.261,3.228-3.274c1.021-0.008,1.934,0.456,2.536,1.187l0.036,0.041
				l6.797,9.194l7.838-10.1l-8.691-11.63l-0.116-0.154c-1.73-2.086-4.27-3.104-6.783-2.983l-11.76,0.071
				c-1.053,0.007-1.984,0.513-2.573,1.293l-0.044,0.05l-9.708,12.704l20.085,25.921L669.171,130.088z"/>
			<path clip-path="url(#SVGID_14_)" fill="#4DBAB2" d="M700.874,160.106l8.154,10.239l0.036,0.034
				c0.459,0.553,0.739,1.263,0.749,2.037c0.021,1.796-1.415,3.269-3.21,3.293c-1.02,0.011-1.938-0.448-2.545-1.175l-0.033-0.042
				l-7.194-9.365l-7.916,9.984l11.664,14.759l17.896-0.041l10.599-13.905l-20.448-25.982L700.874,160.106z"/>
			<path clip-path="url(#SVGID_14_)" fill="#4DBAB2" d="M672.756,154.321c0,0,0.646,1.093,1.479,0l22.848-29.913l6.954-8.732
				l0.035-0.042c0.601-0.73,1.517-1.195,2.535-1.188c1.796,0.013,3.24,1.48,3.228,3.276c-0.005,0.774-0.282,1.485-0.738,2.04
				l-0.038,0.034l-7.395,9.12c-1.095,1.352,0,2.395,0,2.395l7.026,8.819l20.23-25.813l-9.553-12.9l-0.045-0.052
				c-0.589-0.78-1.521-1.287-2.571-1.294l-0.08-0.006l-11.68-0.064c-2.517-0.122-5.054,0.896-6.785,2.981l-32.793,42.088
				L672.756,154.321z"/>
			<path clip-path="url(#SVGID_14_)" fill="#4DBAB2" d="M649.739,145.114c0-4.502-3.665-8.167-8.169-8.167
				c-4.505,0-8.17,3.665-8.17,8.167c0,4.506,3.665,8.171,8.17,8.171C646.074,153.285,649.739,149.62,649.739,145.114
				 M641.57,149.449c-2.39,0-4.335-1.943-4.335-4.335c0-2.389,1.945-4.332,4.335-4.332c2.389,0,4.333,1.943,4.333,4.332
				C645.903,147.506,643.959,149.449,641.57,149.449"/>
			<path clip-path="url(#SVGID_14_)" fill="#4DBAB2" d="M728.909,136.943c-4.506,0-8.169,3.662-8.169,8.167
				c0,4.505,3.663,8.171,8.169,8.171c4.504,0,8.167-3.666,8.167-8.171C737.076,140.605,733.413,136.943,728.909,136.943
				 M728.909,149.446c-2.391,0-4.336-1.943-4.336-4.335c0-2.389,1.945-4.334,4.336-4.334c2.389,0,4.332,1.946,4.332,4.334
				C733.241,147.502,731.298,149.446,728.909,149.446"/>
		</g>
		<g clip-path="url(#SVGID_2_)">
			<defs>
				<path id="SVGID_15_" d="M871.628,169.16v-12.421c0-2.256-0.369-5.255-1.132-9.176c-0.873-4.461-3.105-8.832-6.645-13
					c-3.476-4.083-8.584-7.583-15.192-10.403c-6.595-2.809-15.208-4.173-26.332-4.173c-11.126,0-19.739,1.364-26.332,4.175
					c-6.61,2.819-11.723,6.32-15.191,10.404c-3.541,4.164-5.776,8.539-6.644,12.999c-0.761,3.894-1.132,6.895-1.132,9.174v42.766
					c0,7.356,2.347,14.348,6.974,20.776c4.667,6.5,12.58,11.448,23.521,14.71l0.789,0.236l0.188,0.095l19.369,6.456
					c1.27,0.535,2.722,1.076,4.318,1.609l3.806,1.269c2.718,0.942,4.494,2.125,5.002,3.321c1.104,2.61,1.337,4.188,1.337,5.051
					v27.914c0,0.566-0.095,1.573-0.547,3.154c-0.223,0.778-0.77,1.584-1.62,2.391c-1.068,1.011-2.711,1.943-4.888,2.774
					c-1.528,0.586-4.455,1.284-9.718,1.284c-3.868,0-6.904-0.425-9.03-1.265c-2.013-0.792-3.512-1.699-4.46-2.699
					c-0.822-0.869-1.333-1.704-1.52-2.493c-0.321-1.343-0.482-2.574-0.482-3.658v-8.066h-33.04v12.165
					c0,2.281,0.371,5.282,1.129,9.166c0.87,4.469,3.105,8.845,6.644,13.003c3.472,4.09,8.586,7.592,15.194,10.408
					c6.593,2.809,15.206,4.172,26.332,4.172c11.124,0,19.737-1.363,26.333-4.172c6.605-2.816,11.718-6.318,15.194-10.405
					c3.527-4.153,5.762-8.475,6.639-12.852c0.763-3.832,1.135-6.88,1.135-9.32v-35.086c0-6.945-1.972-13.377-5.836-19.077
					c-1.993-2.99-4.374-5.673-7.076-7.977c-2.767-2.353-5.993-4.179-9.596-5.429c-2.588-1.252-5.655-2.337-9.131-3.229
					c-3.374-1.339-7.094-2.704-11.069-4.061c-4.025-1.37-7.577-2.569-10.666-3.599c-1.019-0.336-2.035-0.675-3.071-1.023
					c-0.957-0.319-1.494-0.556-1.777-0.699l-0.348-0.175l-0.37-0.129c-2.809-0.971-4.671-2.179-5.244-3.402
					c-0.899-1.918-1.375-3.638-1.375-4.98V161.09c0-1.083,0.161-2.313,0.485-3.667c0.195-0.828,0.74-1.744,1.617-2.717
					c0.928-1.031,2.398-1.947,4.359-2.722c2.132-0.839,5.17-1.263,9.03-1.263c5.251,0,8.188,0.698,9.717,1.282
					c2.182,0.836,3.826,1.77,4.883,2.77c0.856,0.811,1.403,1.617,1.626,2.393c0.362,1.271,0.547,2.419,0.547,3.412v8.582H871.628z"
					/>
			</defs>
			<clipPath id="SVGID_16_">
				<use xlink:href="#SVGID_15_"  overflow="visible"/>
			</clipPath>
			<path clip-path="url(#SVGID_16_)" fill="#C42479" d="M850.847,205.906c4.506,0,8.169-3.664,8.169-8.167
				c0-4.505-3.663-8.171-8.169-8.171c-4.504,0-8.17,3.666-8.17,8.171C842.677,202.242,846.343,205.906,850.847,205.906
				 M850.847,193.403c2.39,0,4.334,1.943,4.334,4.335c0,2.389-1.944,4.332-4.334,4.332c-2.389,0-4.334-1.943-4.334-4.332
				C846.513,195.346,848.458,193.403,850.847,193.403"/>
			<path clip-path="url(#SVGID_16_)" fill="#C42479" d="M850.826,295.817c-4.505,0-8.171,3.665-8.171,8.169s3.666,8.17,8.171,8.17
				s8.168-3.666,8.168-8.17S855.331,295.817,850.826,295.817 M850.826,308.32c-2.389,0-4.334-1.942-4.334-4.334
				c0-2.39,1.945-4.334,4.334-4.334c2.39,0,4.334,1.944,4.334,4.334C855.16,306.378,853.216,308.32,850.826,308.32"/>
			<path clip-path="url(#SVGID_16_)" fill="#C42479" d="M870.271,251.053l-6.83-8.746c-1.042-1.333-2.02,0-2.02,0l-22.284,29.401
				l-6.996,8.701l-0.036,0.039c-0.604,0.73-1.521,1.188-2.542,1.177c-1.795-0.023-3.231-1.498-3.21-3.292
				c0.008-0.775,0.29-1.485,0.748-2.035l0.038-0.037l7.146-8.77c0,0,1.121-1.349,0-2.781l-6.886-8.782l-20.307,25.913l10.613,13.904
				l17.899,0.042l11.167-14.063L870.271,251.053z"/>
			<path clip-path="url(#SVGID_16_)" fill="#C42479" d="M834.729,236.004l-7.621-10.292l-0.036-0.035
				c-0.457-0.555-0.733-1.265-0.739-2.04c-0.013-1.793,1.431-3.262,3.227-3.275c1.021-0.007,1.935,0.454,2.535,1.188l0.038,0.042
				l6.797,9.192l7.838-10.102l-8.691-11.628l-0.116-0.155c-1.73-2.085-4.27-3.104-6.785-2.981l-11.758,0.069
				c-1.053,0.007-1.984,0.514-2.573,1.295l-0.044,0.05l-9.707,12.704l20.084,25.92L834.729,236.004z"/>
			<path clip-path="url(#SVGID_16_)" fill="#C42479" d="M866.431,266.022l8.155,10.238l0.036,0.035
				c0.459,0.553,0.739,1.262,0.749,2.037c0.022,1.794-1.416,3.269-3.21,3.292c-1.021,0.011-1.938-0.446-2.545-1.174l-0.033-0.044
				l-7.194-9.363l-7.916,9.981l11.664,14.762l17.896-0.042l10.599-13.904l-20.448-25.983L866.431,266.022z"/>
			<path clip-path="url(#SVGID_16_)" fill="#C42479" d="M838.313,260.237c0,0,0.646,1.09,1.479,0l22.848-29.914l6.954-8.732
				l0.035-0.042c0.601-0.73,1.517-1.196,2.535-1.187c1.796,0.013,3.24,1.479,3.228,3.276c-0.005,0.773-0.283,1.484-0.74,2.04
				l-0.036,0.034l-7.395,9.12c-1.095,1.353,0,2.395,0,2.395l7.026,8.819l20.23-25.813l-9.554-12.9l-0.044-0.053
				c-0.589-0.778-1.521-1.285-2.571-1.292l-0.08-0.006l-11.68-0.065c-2.517-0.121-5.054,0.897-6.785,2.981l-32.794,42.089
				L838.313,260.237z"/>
			<path clip-path="url(#SVGID_16_)" fill="#C42479" d="M815.297,251.031c0-4.503-3.665-8.169-8.169-8.169
				c-4.506,0-8.17,3.666-8.17,8.169c0,4.504,3.664,8.17,8.17,8.17C811.632,259.201,815.297,255.535,815.297,251.031
				 M807.128,255.365c-2.39,0-4.335-1.943-4.335-4.334s1.945-4.333,4.335-4.333c2.389,0,4.332,1.942,4.332,4.333
				S809.517,255.365,807.128,255.365"/>
			<path clip-path="url(#SVGID_16_)" fill="#C42479" d="M894.465,242.859c-4.504,0-8.167,3.663-8.167,8.166
				c0,4.507,3.663,8.171,8.167,8.171c4.506,0,8.169-3.664,8.169-8.171C902.634,246.522,898.971,242.859,894.465,242.859
				 M894.465,255.362c-2.389,0-4.334-1.944-4.334-4.337c0-2.388,1.945-4.334,4.334-4.334c2.391,0,4.334,1.946,4.334,4.334
				C898.799,253.418,896.855,255.362,894.465,255.362"/>
		</g>
	</g>
</g>
</svg>
